<svg xmlns="http://www.w3.org/2000/svg" viewBox="0 0 546.8 89.4" width="547" height="89"><g fill="#595959"><path d="M107.8 47.5h-3.1v-5.3h15.6c6.4 0 10.8 4.5 10.8 11.1s-4.5 11.2-10.8 11.2h-6.2v11.8h-6.3V47.5zm11.4 11.7c3.6 0 5.6-2.3 5.6-5.9 0-3.5-2-5.8-5.5-5.8h-5.1v11.6h5zM135.7 47.5h-3.1v-5.3h15.3c6.2 0 10.6 3.8 10.6 10.3 0 6.1-4.2 8.7-5.7 9v.1s1.1.5 1.7 1.7l3.3 6.6c.5 1 1.3 1.1 2.4 1.1h.6v5.3h-3.3c-2.5 0-3.6-.4-4.8-2.5l-4.4-8.6c-.7-1.3-1.4-1.6-3.2-1.6H142v12.7h-6.3V47.5zm11.2 10.7c3.2 0 5-2 5-5.4 0-3.4-1.9-5.3-4.9-5.3h-5v10.7h4.9zM179 41.6c10 0 17.6 7.6 17.6 17.4 0 10-7.6 17.9-17.6 17.9s-17.6-7.8-17.6-17.9c-.1-9.7 7.5-17.4 17.6-17.4zm0 29.4c6.1 0 11.1-5.2 11.1-12 0-6.5-4.9-11.5-11.1-11.5s-11.1 5-11.1 11.5c0 6.8 4.9 12 11.1 12zM197.8 64.3h6.3v1.4c0 4.1 2.2 5.4 4.5 5.4s4.4-1.4 4.4-5.1V48.6c0-.7-.4-1.1-1.1-1.1h-8.3v-5.3H216c2.3 0 3.3 1 3.3 3.3v20.7c0 7.4-5.4 10.7-10.8 10.7-5.3 0-10.7-3.3-10.7-10.7v-1.9zM226.2 47.5h-3.1v-5.3h20.6c2.3 0 3.3 1 3.3 3.3v5.2h-5.7v-2.1c0-.7-.4-1.1-1.1-1.1h-7.7v8.9h11v5.3h-11v8.1c0 .7.4 1.1 1.1 1.1h7.9c.7 0 1.1-.4 1.1-1.1v-2.1h5.7V73c0 2.3-1 3.3-3.3 3.3h-15.5c-2.3 0-3.3-1-3.3-3.3V47.5zM266.8 41.6c4.4 0 12.9 1.8 12.9 7.6V53H274v-1.9c0-2.5-4.1-3.6-7.1-3.6-6.1 0-10.9 4.4-10.9 11.5 0 6.7 4.9 12 11.1 12 6.4 0 10.3-4.5 10.3-4.5l3.3 4.5s-4.9 5.9-13.7 5.9c-10.4 0-17.5-7.8-17.5-17.9 0-9.9 7.4-17.4 17.3-17.4zM293.4 47.5h-5.2c-.7 0-1.1.4-1.1 1.1v2.1h-5.5v-5.4c0-2.3.8-3.1 3.1-3.1h23.8c2.3 0 3.1.8 3.1 3.1v5.4H306v-2.1c0-.7-.4-1.1-1.1-1.1h-5.2v28.8h-6.3V47.5zM322.5 64.3h6.3v1.4c0 4.1 2.2 5.4 4.5 5.4s4.4-1.4 4.4-5.1V48.6c0-.7-.4-1.1-1.1-1.1h-8.3v-5.3h12.3c2.3 0 3.3 1 3.3 3.3v20.7c0 7.4-5.4 10.7-10.8 10.7-5.3 0-10.7-3.3-10.7-10.7v-1.9zM351 47.5h-3.1v-5.3h20.6c2.3 0 3.3 1 3.3 3.3v5.2H366v-2.1c0-.7-.4-1.1-1.1-1.1h-7.7v8.9h11v5.3h-11v8.1c0 .7.4 1.1 1.1 1.1h7.9c.7 0 1.1-.4 1.1-1.1v-2.1h5.7V73c0 2.3-1 3.3-3.3 3.3h-15.5c-2.3 0-3.3-1-3.3-3.3V47.5zM377.5 48.6c0-.7-.4-1.1-1.1-1.1h-2.1v-5.3h6.1c2.3 0 3.3 1 3.3 3.3v24.4c0 .7.4 1.1 1.1 1.1h7.4c.7 0 1.1-.4 1.1-1.1v-2.1h5.7V73c0 2.3-1 3.3-3.3 3.3h-15c-2.3 0-3.3-1-3.3-3.3V48.6zM401.6 48.6c0-.7-.4-1.1-1.1-1.1h-2.1v-5.3h6.1c2.3 0 3.3 1 3.3 3.3v24.4c0 .7.4 1.1 1.1 1.1h7.4c.7 0 1.1-.4 1.1-1.1v-2.1h5.7V73c0 2.3-1 3.3-3.3 3.3h-15c-2.3 0-3.3-1-3.3-3.3V48.6zM430.2 61.4l-8.1-12.7c-.6-1-.9-1.2-2-1.2H419v-5.3h3.2c2.2 0 3.2.3 4.5 2.5l4.5 7.5c1.2 2 2.1 3.8 2.1 3.8h.1s.9-1.8 2.1-3.8l4.5-7.5c1.2-2.2 2.3-2.5 4.5-2.5h3.2v5.3h-1.1c-1.1 0-1.3.2-2 1.2l-8.1 12.7v14.9h-6.3V61.4zM451.7 47.5h-3.1v-5.3H468c2.3 0 3.3 1 3.3 3.3v5.2h-5.7v-2.1c0-.7-.4-1.1-1.1-1.1H458v9.6h10.9v5.3H458v13.8h-6.3V47.5zM472.8 71h3.4V47.5h-3.4v-5.3h12.8v5.3h-3.4V71h3.4v5.3h-12.8V71zM491.3 67.2s3.5 4 8.3 4c2.6 0 4.9-1.4 4.9-4 0-5.8-16-5.3-16-15.9 0-5.5 4.8-9.6 11.4-9.6 4 0 10.1 1.9 10.1 6.7v3.2h-5.7V50c0-1.6-2.3-2.6-4.5-2.6-2.9 0-5 1.5-5 3.6 0 5.8 16 4.7 16 15.8 0 5.4-4.2 10-11.3 10-7.5 0-11.7-5.3-11.7-5.3l3.5-4.3zM516.1 48.6c0-.7-.4-1.1-1.1-1.1h-2v-5.3h6.1c2.3 0 3.3 1 3.3 3.3v11.2h15V45.5c0-2.3 1-3.3 3.3-3.3h6.1v5.3h-2.1c-.7 0-1.1.4-1.1 1.1v27.7h-6.3V62h-15v14.3H516V48.6z"/></g><path fill="#E46048" d="M28.4 58.2c-10 0-18.4-3.1-23.5-8.7C1.2 45.4-.5 40.3.1 34.8 1.6 19.5 13.7 4.6 27.8.9c2.4-.6 5-.9 7.6-.9 12.7 0 26 7 33 17.4 3.6 5.3 4.3 11.7 2 17.8-3.6 9.7-14.3 17.6-28.4 21.3-4.6 1.1-9.2 1.7-13.6 1.7zm7.1-49.9c-2 0-3.8.2-5.6.7C19.2 11.8 9.5 23.7 8.4 35.6c-.3 3.2.6 6 2.7 8.3 5.1 5.7 16.7 7.5 28.9 4.5 11.3-2.9 20-9.1 22.7-16.2 1.4-3.6 1-7.1-1.1-10.2C56 13.8 45.5 8.3 35.5 8.3z"/><path fill="#6CC3F4" d="M18.9 79.6l-.3-4c3.1-.2 5.4-1.3 7.1-3.3 3.4-4.2 2.6-10.9 2.6-10.9l4-.5c0 .3 1 8.5-3.5 14-2.4 2.8-5.7 4.4-9.9 4.7z"/><circle fill="#E46048" cx="12.2" cy="77.1" r="8.5"/><path fill="#6CC3F4" d="M71.3 64.1c-1 0-1.9-.1-2.9-.3-6.9-1.7-11-8.7-11.2-9l3.5-2c0 .1 3.5 5.9 8.7 7.1 2.5.6 5 .1 7.6-1.7l2.2 3.4c-2.6 1.6-5.2 2.5-7.9 2.5z"/><circle fill="#E46048" cx="83" cy="55.5" r="8.5"/><path fill="#6CC3F4" d="M48.5 77.5l-4-.4c.9-8.4-2.5-16.2-2.5-16.3l3.7-1.6c.2.3 3.9 8.9 2.8 18.3z"/><circle fill="#E46048" cx="48.5" cy="80.9" r="8.5"/></svg>
